HIERARCHY
ROOT Hips
{
  OFFSET 1.44925e-005 102.336 -0.101585
  CHANNELS 6 Xposition Yposition Zposition Zrotation Xrotation Yrotation
  JOINT LeftUpLeg
  {
    OFFSET 8.9458 -8.66707 0.101652
    CHANNELS 3 Zrotation Xrotation Yrotation
    JOINT LeftLeg
    {
      OFFSET 0 -44.4227 1.3727
      CHANNELS 3 Zrotation Xrotation Yrotation
      JOINT LeftFoot
      {
        OFFSET -0.253549 -42.0924 -1.46059
        CHANNELS 3 Zrotation Xrotation Yrotation
        JOINT LeftToes
        {
          OFFSET -0.04 -4.41509 8.4991
          CHANNELS 3 Zrotation Xrotation Yrotation
          End Site
          {
            OFFSET 0.08 -0.047448 9.77979
          }
        }
      }
    }
  }
  JOINT Spine
  {
    OFFSET 0 11.8905 0
    CHANNELS 3 Zrotation Xrotation Yrotation
    JOINT Spine1
    {
      OFFSET 0 25.6574 0.127663
      CHANNELS 3 Zrotation Xrotation Yrotation
      JOINT RightShoulder
      {
        OFFSET -8.99 -0.362252 -0.22
        CHANNELS 3 Zrotation Xrotation Yrotation
        JOINT RightArm
        {
          OFFSET -10.2827 -0.00338 0.322123
          CHANNELS 3 Zrotation Xrotation Yrotation
          JOINT RightForeArm
          {
            OFFSET -26.364 0.099144 -1.42434
            CHANNELS 3 Zrotation Xrotation Yrotation
            JOINT RightHand
            {
              OFFSET -22.0324 0.085362 1.02216
              CHANNELS 3 Zrotation Xrotation Yrotation
              End Site
              {
                OFFSET -13.3284 -0.6 1.50291
              }
            }
          }
        }
      }
      JOINT LeftShoulder1
      {
        OFFSET 8.99 -0.362252 -0.22
        CHANNELS 3 Zrotation Xrotation Yrotation
        JOINT LeftArm
        {
          OFFSET 10.2827 -0.00337999 0.322123
          CHANNELS 3 Zrotation Xrotation Yrotation
          JOINT LeftForeArm
          {
            OFFSET 26.2597 0.099144 -1.42434
            CHANNELS 3 Zrotation Xrotation Yrotation
            JOINT LeftHand
            {
              OFFSET 22.0902 0.085362 1.02216
              CHANNELS 3 Zrotation Xrotation Yrotation
              End Site
              {
                OFFSET 13.419 -0.6 1.50291
              }
            }
          }
        }
      }
      JOINT Head
      {
        OFFSET 0 8.73416 0.011341
        CHANNELS 3 Zrotation Xrotation Yrotation
        End Site
        {
          OFFSET -0.29 12.7742 2.51395
        }
      }
    }
  }
  JOINT RightUpLeg
  {
    OFFSET -8.9458 -8.66707 0.101652
    CHANNELS 3 Zrotation Xrotation Yrotation
    JOINT RightLeg
    {
      OFFSET 0 -44.4227 1.3727
      CHANNELS 3 Zrotation Xrotation Yrotation
      JOINT RightFoot
      {
        OFFSET 0.253549 -42.0924 -1.46059
        CHANNELS 3 Zrotation Xrotation Yrotation
        JOINT RightToes
        {
          OFFSET 0.04 -4.41509 8.4991
          CHANNELS 3 Zrotation Xrotation Yrotation
          End Site
          {
            OFFSET -0.08 -0.137448 9.77979
          }
        }
      }
    }
  }
}
MOTION
Frames:	19
Frame Time:	0.0333333
38.6418 99.0599 2.13279 -8.18954 2.20371 -86.1854 1.79901 -7.66264 -2.45905 2.47784 67.9678 17.7562 -7.57805 -8.86942 -0.0429917 -1.30073e-009 8.75244e-006 -1.47362e-008 9.60893 12.1209 -1.76801 -1.40243 0.420774 0.559799 36.8954 1.75744 0.0695688 38.1624 -4.92933 6.12226 4.37463 21.0108 19.0827 -10.5215 9.37124 0.855032 -45.2606 3.55834 -3.33755 -27.0463 -12.8743 6.51659 3.28835 29.9282 -30.0614 5.82328 9.61819 -0.917488 0.700913 -11.0331 -6.6609 5.11267 -7.381 -3.63885 1.81083 25.1461 -20.4969 -1.01549 -15.8906 -0.301508 0.0462048 0.000530889 0.662642 
36.809 99.2312 1.81786 -8.60843 1.68796 -85.999 0.688694 -10.2871 -3.91129 2.44332 67.8536 17.4439 -7.06213 -10.4062 -0.124616 -1.30073e-009 8.75244e-006 -1.47362e-008 9.34196 12.2388 -1.69382 -1.72791 0.260892 0.65629 36.8064 1.75701 0.0699338 38.2965 -4.26775 6.8366 4.29606 20.2766 19.6116 -10.7331 9.35501 0.909824 -45.0717 3.53839 -3.32671 -26.4321 -14.4134 6.40135 4.21545 30.599 -32.4997 5.82328 9.61819 -0.917488 0.276671 -9.94272 -6.70718 4.81324 -5.3946 -4.02938 1.91186 24.6498 -20.4086 -1.26151 -16.9279 -0.338234 0.0462048 0.000530889 0.662642 
35.0235 99.3886 1.52503 -8.93247 1.20241 -85.9047 -0.270626 -12.6154 -5.05983 2.24843 66.1811 17.2401 -7.22983 -12.0942 -0.227261 -1.30073e-009 8.75244e-006 -1.47362e-008 8.9721 12.4035 -1.5558 -2.00326 -0.0599635 0.738776 36.8059 1.75684 0.0659028 38.3249 -3.42073 7.15721 4.32556 18.9847 20.3998 -11.2711 9.32154 0.956965 -44.9129 3.51927 -3.31299 -25.9028 -15.1796 6.19691 4.91208 31.0324 -34.2678 5.82328 9.61819 -0.917488 -0.108578 -9.07049 -6.76965 4.46131 -3.45928 -4.54508 2.09555 23.9521 -20.1376 -1.52127 -17.764 -0.376834 0.0462048 0.000530889 0.662642 
33.2881 99.544 1.25466 -9.16947 0.799732 -86.1466 -0.89193 -14.6185 -5.49343 1.99213 63.0514 17.3576 -7.84189 -13.2815 -0.326087 -1.30073e-009 8.75244e-006 -1.47362e-008 8.59594 12.5379 -1.28037 -2.34044 -0.314151 0.920209 36.7409 1.75694 0.0699566 38.4703 -2.94187 7.32915 4.32304 18.1613 21.1056 -11.4949 9.32414 0.790927 -44.8303 3.51222 -3.31056 -25.4257 -15.521 5.90705 5.31722 31.2731 -35.2299 5.82328 9.61819 -0.917488 -0.366604 -8.5974 -6.88526 4.18291 -1.65459 -4.98073 2.17925 23.2581 -19.5827 -1.68387 -18.4997 -0.407903 0.0462048 0.000530889 0.662642 
31.6037 99.7125 0.988824 -9.40911 0.459627 -86.5863 -1.24211 -16.1881 -5.41144 1.73831 58.6426 17.5454 -8.47065 -13.2206 -0.353212 -1.30073e-009 8.75244e-006 -1.47362e-008 8.09435 12.6929 -0.964346 -2.62275 -0.412214 1.09333 36.6146 1.75732 0.0798879 38.7556 -2.77294 7.56815 4.21901 18.1377 21.418 -11.3697 9.34373 0.648519 -44.8129 3.51354 -3.31726 -24.9993 -15.7828 5.66418 5.45303 31.3736 -35.4683 5.82328 9.61819 -0.917488 -0.584339 -8.5252 -6.90425 4.01899 0.146417 -5.24156 2.15365 22.4746 -19.0003 -1.85723 -19.0532 -0.437893 0.0462048 0.000530889 0.662642 
29.9749 99.8537 0.725186 -9.69799 0.168867 -86.9733 -1.42821 -17.2351 -5.13714 1.50507 53.282 17.4553 -9.19909 -12.6782 -0.34865 -1.30073e-009 8.75244e-006 -1.47362e-008 7.38257 12.9441 -0.713095 -2.71029 -0.414145 1.14854 36.5608 1.75801 0.0869936 38.9905 -2.47091 7.81979 4.13884 18.3998 21.3429 -11.3568 9.33045 0.803376 -44.7857 3.5082 -3.31858 -24.7017 -16.0291 5.5398 5.4027 31.4073 -35.1358 5.82328 9.61819 -0.917488 -0.840222 -8.69825 -6.71404 3.91864 1.98374 -5.4305 2.13589 21.5847 -18.5584 -1.95962 -19.4639 -0.458483 0.0462048 0.000530889 0.662642 
28.3903 99.9178 0.491786 -9.98335 -0.0394024 -87.285 -1.47171 -17.8573 -4.71035 1.31062 47.4394 17.2603 -9.99407 -12.6464 -0.381724 -1.30073e-009 8.75244e-006 -1.47362e-008 6.59494 13.2315 -0.520876 -2.64786 -0.345009 1.12824 36.6141 1.759 0.0909154 39.1013 -2.01309 7.91224 4.12043 18.7074 21.078 -11.4795 9.29787 1.09054 -44.729 3.50163 -3.30886 -24.5525 -16.0783 5.52431 5.20917 31.3796 -34.3887 5.82328 9.61819 -0.917488 -1.04377 -8.99623 -6.39726 3.88109 3.70288 -5.56498 2.12704 20.8269 -18.2126 -1.869 -19.9808 -0.46127 0.0462048 0.000530889 0.662642 
26.8268 99.9445 0.309993 -10.1539 -0.179991 -87.6416 -1.45109 -18.2535 -4.0898 1.18881 41.4779 17.6051 -10.3227 -12.8388 -0.412603 -1.30073e-009 8.75244e-006 -1.47362e-008 5.84961 13.4034 -0.334274 -2.61837 -0.168263 1.12138 36.7154 1.76032 0.0933783 39.1939 -1.69966 7.78992 4.08238 19.2466 20.7076 -11.3336 9.29839 1.1756 -44.713 3.49786 -3.30116 -24.4367 -15.7313 5.62808 4.86337 31.2238 -33.374 5.82328 9.61819 -0.917488 -1.04252 -9.39136 -6.1233 3.9015 5.20685 -5.56416 2.03917 20.2252 -17.8902 -1.75039 -20.5932 -0.462366 0.0462048 0.000530889 0.662642 
25.2678 99.9826 0.180172 -10.1308 -0.291558 -88.0709 -1.42905 -18.5038 -3.33363 1.13894 35.522 18.6043 -9.99418 -12.6294 -0.380277 -1.30073e-009 8.75244e-006 -1.47362e-008 5.16541 13.3751 -0.14925 -2.72569 0.092264 1.15017 36.8657 1.76213 0.0896793 39.3338 -1.72666 7.50089 4.12342 20.0219 20.1046 -10.9648 9.3311 1.04094 -44.7603 3.49663 -3.29797 -24.2883 -14.9726 5.85809 4.37143 30.9078 -32.1561 5.82328 9.61819 -0.917488 -0.837348 -9.81426 -5.9657 3.91855 6.51931 -5.47981 1.90658 19.5897 -17.5603 -1.7602 -21.0888 -0.474944 0.0462048 0.000530889 0.662642 
23.6831 100.003 0.100201 -9.96586 -0.337465 -88.5427 -1.30982 -18.5034 -2.41444 1.11238 29.6735 19.383 -9.45458 -12.2644 -0.327467 -1.30073e-009 8.75244e-006 -1.47362e-008 4.57073 13.2036 0.02213 -2.89644 0.35246 1.20805 37.0924 1.76591 0.0781034 39.4696 -2.12433 7.08254 4.43286 20.8984 19.1376 -10.857 9.34776 0.916539 -44.7994 3.49748 -3.29216 -24.2069 -13.9605 6.15548 3.73487 30.4166 -30.6846 5.82328 9.61819 -0.917488 -0.595757 -10.1193 -5.87049 3.91055 7.73978 -5.44717 1.84114 18.86 -17.1695 -1.72781 -21.4976 -0.480297 0.0462048 0.000530889 0.662642 
22.0351 99.9869 0.0696547 -9.79572 -0.279786 -89.0905 -1.02812 -18.1433 -1.29214 1.04531 24.1613 19.2618 -8.91846 -12.1498 -0.297047 -1.30073e-009 8.75244e-006 -1.47362e-008 4.05011 13.0132 0.199445 -3.00862 0.592491 1.30018 37.3316 1.77043 0.0667867 39.5617 -2.97595 6.56593 4.94619 22.1745 17.8452 -11.0656 9.33647 0.914579 -44.8115 3.50103 -3.29214 -24.2744 -12.8464 6.4735 2.92759 29.6715 -28.9275 5.82328 9.61819 -0.917488 -0.449477 -10.246 -5.73579 3.92218 9.04544 -5.45826 1.82479 18.0107 -16.672 -1.46171 -21.9203 -0.455813 0.0462048 0.000530889 0.662642 
20.3054 99.9453 0.0912206 -9.64596 -0.0988642 -89.7145 -0.671679 -17.5524 -0.456337 0.823044 19.3149 19.0472 -8.21221 -11.9943 -0.258728 -1.30073e-009 8.75244e-006 -1.47362e-008 3.56582 12.8242 0.372001 -3.03136 0.839722 1.39986 37.4834 1.77325 0.0625415 39.6553 -4.37904 6.0047 5.45759 24.2983 16.3704 -11.1403 9.32805 0.964097 -44.8712 3.51204 -3.30502 -24.4337 -11.6696 6.85258 1.99816 28.6397 -26.9859 5.82328 9.61819 -0.917488 -0.369346 -10.3 -5.48862 3.98753 10.4552 -5.41732 1.75097 17.0915 -16.102 -1.02384 -22.2978 -0.405876 0.0462048 0.000530889 0.662642 
18.4789 99.8298 0.18049 -9.39142 0.0992721 -90.3499 -0.311844 -17.0463 -0.477398 0.462629 15.6239 19.8891 -7.5202 -11.5604 -0.205318 -1.30073e-009 8.75244e-006 -1.47362e-008 3.19279 12.5117 0.479971 -3.02316 1.05953 1.45146 37.5363 1.77464 0.0622707 39.7928 -6.14751 5.40436 5.9181 26.9973 14.888 -10.8813 9.33971 0.99485 -44.9909 3.53218 -3.32652 -24.633 -10.5027 7.31267 1.08125 27.5345 -24.9851 5.82328 9.61819 -0.917488 -0.269371 -10.3997 -5.15015 4.08368 11.6981 -5.35606 1.61572 16.4371 -15.5041 -0.509745 -22.73 -0.343012 0.0462048 0.000530889 0.662642 
16.5381 99.5855 0.359662 -8.983 0.406096 -90.9093 -0.00601052 -16.7637 -0.569173 0.289147 13.572 21.0186 -7.14356 -11.3126 -0.177791 -1.30073e-009 8.75244e-006 -1.47362e-008 3.03446 12.0098 0.516274 -3.07807 1.2258 1.46846 37.5716 1.77553 0.059224 39.8856 -7.76303 4.69783 6.34822 29.333 13.6334 -10.5148 9.36361 0.951106 -45.0798 3.54587 -3.33994 -24.8128 -9.98075 7.76736 0.209491 27.1146 -22.9673 5.82328 9.61819 -0.917488 -0.143464 -10.5455 -4.8379 4.14956 12.6282 -5.38148 1.47951 16.2764 -14.8159 0.125383 -23.4792 -0.260858 0.0462048 0.000530889 0.662642 
14.4847 99.2666 0.63679 -8.55711 0.698488 -91.5151 0.145346 -16.5182 -0.463979 0.28612 13.1588 21.9264 -6.56353 -11.3369 -0.159758 -1.30073e-009 8.75244e-006 -1.47362e-008 3.01056 11.4428 0.559231 -3.26109 1.42021 1.53887 37.6842 1.77597 0.050674 39.7565 -8.86632 3.88904 6.69566 30.7894 12.7671 -10.2428 9.39454 0.751665 -45.1017 3.55025 -3.34519 -24.8103 -10.863 8.16071 -0.730741 28.0893 -20.9852 5.82328 9.61819 -0.917488 -0.0228439 -10.7265 -4.63487 4.11484 13.5161 -5.48116 1.29214 16.3196 -13.9229 0.891625 -24.439 -0.150355 0.0462048 0.000530889 0.662642 
12.3364 98.9799 0.996108 -8.21746 0.858365 -92.2091 -0.0357929 -16.2096 -0.389077 0.395186 13.7966 22.7423 -5.01723 -10.4331 -0.0783742 -1.30073e-009 8.75244e-006 -1.47362e-008 2.82153 10.9672 0.650773 -3.49488 1.66981 1.66224 37.8823 1.77602 0.0390537 39.3992 -9.75183 3.13092 6.97569 31.8029 12.1119 -10.1252 9.42439 0.453609 -45.1365 3.55955 -3.358 -24.6573 -12.3048 8.57523 -1.68614 29.5159 -19.2143 5.82328 9.61819 -0.917488 0.116484 -11.0568 -4.47427 3.88629 14.6105 -5.57679 0.948538 16.2253 -12.8447 1.71461 -25.1707 -0.0190556 0.0462048 0.000530889 0.662642 
10.1099 98.7477 1.41012 -7.89462 0.720766 -92.7732 -0.610549 -16.1593 -0.445638 0.517802 15.0863 23.4536 -2.88636 -7.64218 0.0283892 -1.30073e-009 8.75244e-006 -1.47362e-008 2.1612 10.6101 0.725902 -3.53405 1.81569 1.6897 38.0335 1.77572 0.0307185 39.0869 -11.0912 2.52342 7.28814 32.9737 11.3353 -10.1996 9.43354 0.290394 -45.2293 3.57773 -3.37937 -24.416 -13.7321 9.09333 -2.49182 30.894 -17.7805 5.82328 9.61819 -0.917488 0.293769 -11.6913 -4.27064 3.36114 15.7127 -5.73423 0.482811 16.2113 -11.7692 2.65102 -25.584 0.137167 0.0462048 0.000530889 0.662642 
7.80317 98.5132 1.86409 -7.56311 0.280584 -92.9363 -1.45479 -16.5564 -0.396563 0.574848 17.0935 23.5827 -1.20307 -4.25978 0.0477357 -1.30073e-009 8.75244e-006 -1.47362e-008 1.05091 10.3377 0.736768 -3.2186 1.74515 1.55189 38.0155 1.77513 0.0273422 39.0365 -13.0185 1.91169 7.57976 34.0971 10.52 -10.3374 9.42214 0.347837 -45.3001 3.58954 -3.39166 -24.1851 -15.1707 9.5439 -3.0957 32.4087 -16.5841 5.82328 9.61819 -0.917488 0.429527 -12.6212 -4.14811 2.53824 16.521 -6.10484 0.0154292 16.841 -10.8248 3.92998 -25.985 0.357795 0.0462048 0.000530889 0.662642 
5.4017 98.287 2.36754 -7.40168 -0.296563 -92.7953 -2.48383 -16.8546 -0.0591027 0.689343 19.6122 22.9829 -0.0798217 -2.80627 0.00670921 -1.30073e-009 8.75244e-006 -1.47362e-008 -0.122102 10.1405 0.780431 -2.79787 1.62519 1.44282 37.9348 1.7743 0.0261184 39.0524 -14.7948 1.06704 7.65581 34.4251 10.1387 -10.2776 9.42165 0.39062 -45.271 3.58597 -3.38907 -24.0407 -16.5292 9.65416 -3.58062 33.9894 -15.5359 5.82328 9.61819 -0.917488 0.412287 -13.5916 -4.35722 1.5223 17.175 -6.5725 -0.454184 18.2409 -9.95166 5.74417 -26.2312 0.67112 0.0462048 0.000530889 0.662642 
